<svg xmlns="http://www.w3.org/2000/svg" xmlns:xlink="http://www.w3.org/1999/xlink" width="200" zoomAndPan="magnify" viewBox="0 0 150 52.499999" height="70" preserveAspectRatio="xMidYMid meet" version="1.0"><defs><g/><clipPath id="ac39d2080e"><path d="M 0.707031 0 L 149.292969 0 L 149.292969 52.003906 L 0.707031 52.003906 Z M 0.707031 0 " clip-rule="nonzero"/></clipPath></defs><g clip-path="url(#ac39d2080e)"><path fill="#ffffff" d="M 0.707031 0 L 149.292969 0 L 149.292969 59.433594 L 0.707031 59.433594 Z M 0.707031 0 " fill-opacity="1" fill-rule="nonzero"/><path fill="#ffffff" d="M 0.707031 0 L 149.292969 0 L 149.292969 52.003906 L 0.707031 52.003906 Z M 0.707031 0 " fill-opacity="1" fill-rule="nonzero"/><path fill="#ffffff" d="M 0.707031 0 L 149.292969 0 L 149.292969 52.003906 L 0.707031 52.003906 Z M 0.707031 0 " fill-opacity="1" fill-rule="nonzero"/></g><g fill="#000000" fill-opacity="1"><g transform="translate(11.108492, 31.57429)"><g><path d="M 5.046875 -8.15625 L 5.03125 -8.15625 L 3.6875 -3.984375 L 6.375 -3.984375 Z M 7.671875 0 L 7 -2.171875 L 3.125 -2.171875 L 2.375 0 L 0.046875 0 L 3.796875 -10.515625 L 6.359375 -10.515625 L 10.0625 0 Z M 7.671875 0 "/></g></g></g><g fill="#000000" fill-opacity="1"><g transform="translate(21.296984, 31.57429)"><g><path d="M 0.40625 0 L 0.40625 -10.640625 L 2.46875 -10.640625 L 2.46875 0 Z M 0.40625 0 "/></g></g></g><g fill="#000000" fill-opacity="1"><g transform="translate(24.228359, 31.57429)"><g><path d="M 5.546875 -4.65625 C 5.535156 -4.9375 5.484375 -5.1875 5.390625 -5.40625 C 5.304688 -5.625 5.1875 -5.800781 5.03125 -5.9375 C 4.882812 -6.082031 4.71875 -6.191406 4.53125 -6.265625 C 4.34375 -6.335938 4.144531 -6.375 3.9375 -6.375 C 3.53125 -6.375 3.175781 -6.222656 2.875 -5.921875 C 2.570312 -5.617188 2.398438 -5.195312 2.359375 -4.65625 Z M 2.296875 -3.359375 C 2.328125 -2.765625 2.5 -2.289062 2.8125 -1.9375 C 3.125 -1.59375 3.535156 -1.421875 4.046875 -1.421875 C 4.378906 -1.421875 4.675781 -1.5 4.9375 -1.65625 C 5.195312 -1.8125 5.363281 -2.023438 5.4375 -2.296875 L 7.5625 -2.296875 C 7.3125 -1.492188 6.882812 -0.875 6.28125 -0.4375 C 5.6875 -0.0078125 4.972656 0.203125 4.140625 0.203125 C 1.535156 0.203125 0.234375 -1.210938 0.234375 -4.046875 C 0.234375 -4.640625 0.316406 -5.179688 0.484375 -5.671875 C 0.660156 -6.160156 0.910156 -6.578125 1.234375 -6.921875 C 1.554688 -7.273438 1.945312 -7.539062 2.40625 -7.71875 C 2.875 -7.90625 3.410156 -8 4.015625 -8 C 5.210938 -8 6.117188 -7.613281 6.734375 -6.84375 C 7.359375 -6.070312 7.671875 -4.910156 7.671875 -3.359375 Z M 2.296875 -3.359375 "/></g></g></g><g fill="#000000" fill-opacity="1"><g transform="translate(32.198519, 31.57429)"><g><path d="M 5.21875 0 L 3.84375 -2.34375 L 2.515625 0 L 0.046875 0 L 2.65625 -3.984375 L 0.125 -7.796875 L 2.609375 -7.796875 L 3.921875 -5.53125 L 5.265625 -7.796875 L 7.65625 -7.796875 L 5.0625 -3.984375 L 7.734375 0 Z M 5.21875 0 "/></g></g></g><g fill="#000000" fill-opacity="1"><g transform="translate(40.057766, 31.57429)"><g><path d="M 5.15625 -3.8125 C 5.039062 -3.707031 4.882812 -3.625 4.6875 -3.5625 C 4.488281 -3.5 4.195312 -3.429688 3.8125 -3.359375 C 3.226562 -3.242188 2.820312 -3.09375 2.59375 -2.90625 C 2.375 -2.726562 2.265625 -2.472656 2.265625 -2.140625 C 2.265625 -1.554688 2.597656 -1.265625 3.265625 -1.265625 C 3.523438 -1.265625 3.769531 -1.304688 4 -1.390625 C 4.226562 -1.484375 4.421875 -1.609375 4.578125 -1.765625 C 4.742188 -1.921875 4.878906 -2.097656 4.984375 -2.296875 C 5.085938 -2.503906 5.140625 -2.726562 5.140625 -2.96875 Z M 5.296875 0 C 5.234375 -0.195312 5.191406 -0.429688 5.171875 -0.703125 C 4.921875 -0.421875 4.59375 -0.195312 4.1875 -0.03125 C 3.789062 0.125 3.328125 0.203125 2.796875 0.203125 C 1.898438 0.203125 1.242188 0.00390625 0.828125 -0.390625 C 0.410156 -0.785156 0.203125 -1.300781 0.203125 -1.9375 C 0.203125 -2.488281 0.289062 -2.929688 0.46875 -3.265625 C 0.65625 -3.597656 0.90625 -3.859375 1.21875 -4.046875 C 1.53125 -4.242188 1.90625 -4.382812 2.34375 -4.46875 C 2.789062 -4.5625 3.269531 -4.644531 3.78125 -4.71875 C 4.300781 -4.789062 4.648438 -4.890625 4.828125 -5.015625 C 5.015625 -5.140625 5.109375 -5.335938 5.109375 -5.609375 C 5.109375 -5.859375 4.988281 -6.054688 4.75 -6.203125 C 4.507812 -6.347656 4.1875 -6.421875 3.78125 -6.421875 C 3.3125 -6.421875 2.972656 -6.3125 2.765625 -6.09375 C 2.554688 -5.882812 2.425781 -5.609375 2.375 -5.265625 L 0.453125 -5.265625 C 0.460938 -5.660156 0.53125 -6.023438 0.65625 -6.359375 C 0.78125 -6.703125 0.972656 -6.992188 1.234375 -7.234375 C 1.503906 -7.484375 1.859375 -7.671875 2.296875 -7.796875 C 2.734375 -7.929688 3.257812 -8 3.875 -8 C 4.488281 -8 5.007812 -7.929688 5.4375 -7.796875 C 5.863281 -7.660156 6.207031 -7.460938 6.46875 -7.203125 C 6.726562 -6.941406 6.914062 -6.617188 7.03125 -6.234375 C 7.144531 -5.847656 7.203125 -5.410156 7.203125 -4.921875 L 7.203125 0 Z M 5.296875 0 "/></g></g></g><g fill="#000000" fill-opacity="1"><g transform="translate(47.758556, 31.57429)"><g><path d="M 5.40625 0 L 5.40625 -4.71875 C 5.40625 -5.320312 5.300781 -5.726562 5.09375 -5.9375 C 4.894531 -6.15625 4.554688 -6.265625 4.078125 -6.265625 C 3.003906 -6.265625 2.46875 -5.664062 2.46875 -4.46875 L 2.46875 0 L 0.40625 0 L 0.40625 -7.796875 L 2.375 -7.796875 L 2.375 -6.65625 C 2.613281 -7.09375 2.929688 -7.425781 3.328125 -7.65625 C 3.734375 -7.882812 4.253906 -8 4.890625 -8 C 5.265625 -8 5.609375 -7.941406 5.921875 -7.828125 C 6.242188 -7.722656 6.515625 -7.554688 6.734375 -7.328125 C 6.960938 -7.109375 7.144531 -6.835938 7.28125 -6.515625 C 7.414062 -6.191406 7.484375 -5.820312 7.484375 -5.40625 L 7.484375 0 Z M 5.40625 0 "/></g></g></g><g fill="#000000" fill-opacity="1"><g transform="translate(55.728716, 31.57429)"><g><path d="M 4.109375 -1.46875 C 4.597656 -1.46875 5.007812 -1.671875 5.34375 -2.078125 C 5.675781 -2.492188 5.84375 -3.035156 5.84375 -3.703125 C 5.84375 -5.398438 5.269531 -6.25 4.125 -6.25 C 2.9375 -6.25 2.34375 -5.441406 2.34375 -3.828125 C 2.34375 -3.128906 2.503906 -2.5625 2.828125 -2.125 C 3.160156 -1.6875 3.585938 -1.46875 4.109375 -1.46875 Z M 5.8125 0 L 5.796875 -0.953125 C 5.316406 -0.179688 4.59375 0.203125 3.625 0.203125 C 3.132812 0.203125 2.679688 0.109375 2.265625 -0.078125 C 1.847656 -0.265625 1.492188 -0.535156 1.203125 -0.890625 C 0.910156 -1.253906 0.675781 -1.695312 0.5 -2.21875 C 0.332031 -2.738281 0.25 -3.328125 0.25 -3.984375 C 0.25 -4.566406 0.320312 -5.101562 0.46875 -5.59375 C 0.613281 -6.09375 0.820312 -6.519531 1.09375 -6.875 C 1.363281 -7.238281 1.695312 -7.515625 2.09375 -7.703125 C 2.488281 -7.898438 2.941406 -8 3.453125 -8 C 4.410156 -8 5.179688 -7.59375 5.765625 -6.78125 L 5.765625 -10.640625 L 7.796875 -10.640625 L 7.796875 0 Z M 5.8125 0 "/></g></g></g><g fill="#000000" fill-opacity="1"><g transform="translate(64.015776, 31.57429)"><g><path d="M 5.546875 -4.65625 C 5.535156 -4.9375 5.484375 -5.1875 5.390625 -5.40625 C 5.304688 -5.625 5.1875 -5.800781 5.03125 -5.9375 C 4.882812 -6.082031 4.71875 -6.191406 4.53125 -6.265625 C 4.34375 -6.335938 4.144531 -6.375 3.9375 -6.375 C 3.53125 -6.375 3.175781 -6.222656 2.875 -5.921875 C 2.570312 -5.617188 2.398438 -5.195312 2.359375 -4.65625 Z M 2.296875 -3.359375 C 2.328125 -2.765625 2.5 -2.289062 2.8125 -1.9375 C 3.125 -1.59375 3.535156 -1.421875 4.046875 -1.421875 C 4.378906 -1.421875 4.675781 -1.5 4.9375 -1.65625 C 5.195312 -1.8125 5.363281 -2.023438 5.4375 -2.296875 L 7.5625 -2.296875 C 7.3125 -1.492188 6.882812 -0.875 6.28125 -0.4375 C 5.6875 -0.0078125 4.972656 0.203125 4.140625 0.203125 C 1.535156 0.203125 0.234375 -1.210938 0.234375 -4.046875 C 0.234375 -4.640625 0.316406 -5.179688 0.484375 -5.671875 C 0.660156 -6.160156 0.910156 -6.578125 1.234375 -6.921875 C 1.554688 -7.273438 1.945312 -7.539062 2.40625 -7.71875 C 2.875 -7.90625 3.410156 -8 4.015625 -8 C 5.210938 -8 6.117188 -7.613281 6.734375 -6.84375 C 7.359375 -6.070312 7.671875 -4.910156 7.671875 -3.359375 Z M 2.296875 -3.359375 "/></g></g></g><g fill="#000000" fill-opacity="1"><g transform="translate(71.985936, 31.57429)"><g><path d="M 0.40625 0 L 0.40625 -7.796875 L 2.34375 -7.796875 L 2.34375 -6.859375 C 2.507812 -7.117188 2.6875 -7.320312 2.875 -7.46875 C 3.0625 -7.625 3.25 -7.738281 3.4375 -7.8125 C 3.632812 -7.894531 3.832031 -7.945312 4.03125 -7.96875 C 4.238281 -7.988281 4.445312 -8 4.65625 -8 L 4.921875 -8 L 4.921875 -5.890625 C 4.734375 -5.921875 4.546875 -5.9375 4.359375 -5.9375 C 3.097656 -5.9375 2.46875 -5.3125 2.46875 -4.0625 L 2.46875 0 Z M 0.40625 0 "/></g></g></g><g fill="#000000" fill-opacity="1"><g transform="translate(77.072264, 31.57429)"><g/></g></g><g fill="#000000" fill-opacity="1"><g transform="translate(80.890974, 31.57429)"><g><path d="M 8.515625 0 L 8.515625 -7.203125 L 6.546875 0 L 4.359375 0 L 2.40625 -7.171875 L 2.40625 0 L 0.359375 0 L 0.359375 -10.515625 L 3.59375 -10.515625 L 5.5 -2.796875 L 7.40625 -10.515625 L 10.5625 -10.515625 L 10.5625 0 Z M 8.515625 0 "/></g></g></g><g fill="#000000" fill-opacity="1"><g transform="translate(91.903422, 31.57429)"><g><path d="M 5.546875 -4.65625 C 5.535156 -4.9375 5.484375 -5.1875 5.390625 -5.40625 C 5.304688 -5.625 5.1875 -5.800781 5.03125 -5.9375 C 4.882812 -6.082031 4.71875 -6.191406 4.53125 -6.265625 C 4.34375 -6.335938 4.144531 -6.375 3.9375 -6.375 C 3.53125 -6.375 3.175781 -6.222656 2.875 -5.921875 C 2.570312 -5.617188 2.398438 -5.195312 2.359375 -4.65625 Z M 2.296875 -3.359375 C 2.328125 -2.765625 2.5 -2.289062 2.8125 -1.9375 C 3.125 -1.59375 3.535156 -1.421875 4.046875 -1.421875 C 4.378906 -1.421875 4.675781 -1.5 4.9375 -1.65625 C 5.195312 -1.8125 5.363281 -2.023438 5.4375 -2.296875 L 7.5625 -2.296875 C 7.3125 -1.492188 6.882812 -0.875 6.28125 -0.4375 C 5.6875 -0.0078125 4.972656 0.203125 4.140625 0.203125 C 1.535156 0.203125 0.234375 -1.210938 0.234375 -4.046875 C 0.234375 -4.640625 0.316406 -5.179688 0.484375 -5.671875 C 0.660156 -6.160156 0.910156 -6.578125 1.234375 -6.921875 C 1.554688 -7.273438 1.945312 -7.539062 2.40625 -7.71875 C 2.875 -7.90625 3.410156 -8 4.015625 -8 C 5.210938 -8 6.117188 -7.613281 6.734375 -6.84375 C 7.359375 -6.070312 7.671875 -4.910156 7.671875 -3.359375 Z M 2.296875 -3.359375 "/></g></g></g><g fill="#000000" fill-opacity="1"><g transform="translate(99.873581, 31.57429)"><g><path d="M 4.109375 -1.46875 C 4.597656 -1.46875 5.007812 -1.671875 5.34375 -2.078125 C 5.675781 -2.492188 5.84375 -3.035156 5.84375 -3.703125 C 5.84375 -5.398438 5.269531 -6.25 4.125 -6.25 C 2.9375 -6.25 2.34375 -5.441406 2.34375 -3.828125 C 2.34375 -3.128906 2.503906 -2.5625 2.828125 -2.125 C 3.160156 -1.6875 3.585938 -1.46875 4.109375 -1.46875 Z M 5.8125 0 L 5.796875 -0.953125 C 5.316406 -0.179688 4.59375 0.203125 3.625 0.203125 C 3.132812 0.203125 2.679688 0.109375 2.265625 -0.078125 C 1.847656 -0.265625 1.492188 -0.535156 1.203125 -0.890625 C 0.910156 -1.253906 0.675781 -1.695312 0.5 -2.21875 C 0.332031 -2.738281 0.25 -3.328125 0.25 -3.984375 C 0.25 -4.566406 0.320312 -5.101562 0.46875 -5.59375 C 0.613281 -6.09375 0.820312 -6.519531 1.09375 -6.875 C 1.363281 -7.238281 1.695312 -7.515625 2.09375 -7.703125 C 2.488281 -7.898438 2.941406 -8 3.453125 -8 C 4.410156 -8 5.179688 -7.59375 5.765625 -6.78125 L 5.765625 -10.640625 L 7.796875 -10.640625 L 7.796875 0 Z M 5.8125 0 "/></g></g></g><g fill="#000000" fill-opacity="1"><g transform="translate(108.160642, 31.57429)"><g><path d="M 4.15625 -1.546875 C 4.65625 -1.546875 5.070312 -1.738281 5.40625 -2.125 C 5.738281 -2.507812 5.90625 -3.035156 5.90625 -3.703125 C 5.90625 -5.367188 5.320312 -6.203125 4.15625 -6.203125 C 2.976562 -6.203125 2.390625 -5.410156 2.390625 -3.828125 C 2.390625 -3.128906 2.554688 -2.570312 2.890625 -2.15625 C 3.222656 -1.75 3.644531 -1.546875 4.15625 -1.546875 Z M 5.84375 -1.046875 C 5.695312 -0.691406 5.429688 -0.414062 5.046875 -0.21875 C 4.660156 -0.03125 4.210938 0.0625 3.703125 0.0625 C 3.054688 0.0625 2.515625 -0.0507812 2.078125 -0.28125 C 1.640625 -0.507812 1.285156 -0.804688 1.015625 -1.171875 C 0.753906 -1.546875 0.5625 -1.972656 0.4375 -2.453125 C 0.3125 -2.941406 0.25 -3.4375 0.25 -3.9375 C 0.25 -4.539062 0.335938 -5.09375 0.515625 -5.59375 C 0.703125 -6.101562 0.945312 -6.535156 1.25 -6.890625 C 1.5625 -7.242188 1.921875 -7.515625 2.328125 -7.703125 C 2.742188 -7.898438 3.1875 -8 3.65625 -8 C 4.632812 -8 5.363281 -7.609375 5.84375 -6.828125 L 5.84375 -7.796875 L 7.90625 -7.796875 L 7.90625 0.078125 C 7.90625 0.671875 7.800781 1.191406 7.59375 1.640625 C 7.394531 2.085938 7.125 2.460938 6.78125 2.765625 C 6.4375 3.066406 6.023438 3.296875 5.546875 3.453125 C 5.066406 3.609375 4.5625 3.6875 4.03125 3.6875 C 3.488281 3.6875 2.984375 3.609375 2.515625 3.453125 C 2.054688 3.304688 1.660156 3.09375 1.328125 2.8125 C 0.992188 2.53125 0.726562 2.1875 0.53125 1.78125 C 0.34375 1.382812 0.25 0.929688 0.25 0.421875 L 2.171875 0.421875 C 2.171875 0.898438 2.328125 1.269531 2.640625 1.53125 C 2.953125 1.789062 3.363281 1.921875 3.875 1.921875 C 4.425781 1.921875 4.890625 1.769531 5.265625 1.46875 C 5.648438 1.164062 5.84375 0.753906 5.84375 0.234375 Z M 5.84375 -1.046875 "/></g></g></g><g fill="#000000" fill-opacity="1"><g transform="translate(116.558627, 31.57429)"><g><path d="M 5.546875 -4.65625 C 5.535156 -4.9375 5.484375 -5.1875 5.390625 -5.40625 C 5.304688 -5.625 5.1875 -5.800781 5.03125 -5.9375 C 4.882812 -6.082031 4.71875 -6.191406 4.53125 -6.265625 C 4.34375 -6.335938 4.144531 -6.375 3.9375 -6.375 C 3.53125 -6.375 3.175781 -6.222656 2.875 -5.921875 C 2.570312 -5.617188 2.398438 -5.195312 2.359375 -4.65625 Z M 2.296875 -3.359375 C 2.328125 -2.765625 2.5 -2.289062 2.8125 -1.9375 C 3.125 -1.59375 3.535156 -1.421875 4.046875 -1.421875 C 4.378906 -1.421875 4.675781 -1.5 4.9375 -1.65625 C 5.195312 -1.8125 5.363281 -2.023438 5.4375 -2.296875 L 7.5625 -2.296875 C 7.3125 -1.492188 6.882812 -0.875 6.28125 -0.4375 C 5.6875 -0.0078125 4.972656 0.203125 4.140625 0.203125 C 1.535156 0.203125 0.234375 -1.210938 0.234375 -4.046875 C 0.234375 -4.640625 0.316406 -5.179688 0.484375 -5.671875 C 0.660156 -6.160156 0.910156 -6.578125 1.234375 -6.921875 C 1.554688 -7.273438 1.945312 -7.539062 2.40625 -7.71875 C 2.875 -7.90625 3.410156 -8 4.015625 -8 C 5.210938 -8 6.117188 -7.613281 6.734375 -6.84375 C 7.359375 -6.070312 7.671875 -4.910156 7.671875 -3.359375 Z M 2.296875 -3.359375 "/></g></g></g><g fill="#000000" fill-opacity="1"><g transform="translate(124.528787, 31.57429)"><g><path d="M 4.828125 -5.140625 L 6.75 -5.140625 L 6.75 -2.921875 C 6.75 -2.503906 6.6875 -2.109375 6.5625 -1.734375 C 6.445312 -1.359375 6.257812 -1.023438 6 -0.734375 C 5.738281 -0.441406 5.410156 -0.210938 5.015625 -0.046875 C 4.617188 0.117188 4.144531 0.203125 3.59375 0.203125 C 3.019531 0.203125 2.53125 0.117188 2.125 -0.046875 C 1.726562 -0.210938 1.398438 -0.4375 1.140625 -0.71875 C 0.890625 -1.007812 0.703125 -1.34375 0.578125 -1.71875 C 0.460938 -2.101562 0.40625 -2.507812 0.40625 -2.9375 L 0.40625 -9.90625 L 2.4375 -9.90625 L 2.4375 -7.796875 L 6.75 -7.796875 L 6.75 -6.34375 L 2.4375 -6.34375 L 2.4375 -3.140625 C 2.4375 -2.640625 2.53125 -2.253906 2.71875 -1.984375 C 2.90625 -1.710938 3.207031 -1.578125 3.625 -1.578125 C 4.039062 -1.578125 4.34375 -1.707031 4.53125 -1.96875 C 4.726562 -2.238281 4.828125 -2.617188 4.828125 -3.109375 Z M 4.828125 -5.140625 "/></g></g></g><g fill="#000000" fill-opacity="1"><g transform="translate(131.706687, 31.57429)"><g><path d="M 4.828125 -5.140625 L 6.75 -5.140625 L 6.75 -2.921875 C 6.75 -2.503906 6.6875 -2.109375 6.5625 -1.734375 C 6.445312 -1.359375 6.257812 -1.023438 6 -0.734375 C 5.738281 -0.441406 5.410156 -0.210938 5.015625 -0.046875 C 4.617188 0.117188 4.144531 0.203125 3.59375 0.203125 C 3.019531 0.203125 2.53125 0.117188 2.125 -0.046875 C 1.726562 -0.210938 1.398438 -0.4375 1.140625 -0.71875 C 0.890625 -1.007812 0.703125 -1.34375 0.578125 -1.71875 C 0.460938 -2.101562 0.40625 -2.507812 0.40625 -2.9375 L 0.40625 -9.90625 L 2.4375 -9.90625 L 2.4375 -7.796875 L 6.75 -7.796875 L 6.75 -6.34375 L 2.4375 -6.34375 L 2.4375 -3.140625 C 2.4375 -2.640625 2.53125 -2.253906 2.71875 -1.984375 C 2.90625 -1.710938 3.207031 -1.578125 3.625 -1.578125 C 4.039062 -1.578125 4.34375 -1.707031 4.53125 -1.96875 C 4.726562 -2.238281 4.828125 -2.617188 4.828125 -3.109375 Z M 4.828125 -5.140625 "/></g></g></g></svg>