<svg xmlns="http://www.w3.org/2000/svg" xmlns:xlink="http://www.w3.org/1999/xlink" width="500" zoomAndPan="magnify" viewBox="0 0 375 374.999991" height="500" preserveAspectRatio="xMidYMid meet" version="1.0"><defs><g/></defs><rect x="-37.5" width="450" fill="#ffffff" y="-37.499999" height="449.999989" fill-opacity="1"/><rect x="-37.5" width="450" fill="#ffffff" y="-37.499999" height="449.999989" fill-opacity="1"/><rect x="-37.5" width="450" fill="#74cbe7" y="-37.499999" height="449.999989" fill-opacity="1"/><g fill="#000000" fill-opacity="0.4"><g transform="translate(34.201306, 256.888006)"><g><path d="M 54.234375 -87.546875 L 54.0625 -87.546875 L 39.609375 -42.671875 L 68.34375 -42.671875 Z M 82.28125 0 L 75.140625 -23.296875 L 33.484375 -23.296875 L 25.5 0 L 0.515625 0 L 40.796875 -112.875 L 68.171875 -112.875 L 107.953125 0 Z M 82.28125 0 "/></g></g></g><g fill="#000000" fill-opacity="0.4"><g transform="translate(143.506245, 256.888006)"><g><path d="M 34.6875 0 L 34.6875 -93.15625 L 0.6875 -93.15625 L 0.6875 -112.875 L 92.484375 -112.875 L 92.484375 -93.15625 L 58.3125 -93.15625 L 58.3125 0 Z M 34.6875 0 "/></g></g></g><g fill="#000000" fill-opacity="0.4"><g transform="translate(237.681891, 256.888006)"><g><path d="M 91.296875 0 L 91.296875 -77.34375 L 70.203125 0 L 46.75 0 L 25.84375 -77.015625 L 25.84375 0 L 3.90625 0 L 3.90625 -112.875 L 38.59375 -112.875 L 58.984375 -30.09375 L 79.390625 -112.875 L 113.390625 -112.875 L 113.390625 0 Z M 91.296875 0 "/></g></g></g><g fill="#ffffff" fill-opacity="1"><g transform="translate(26.688284, 249.374984)"><g><path d="M 54.234375 -87.546875 L 54.0625 -87.546875 L 39.609375 -42.671875 L 68.34375 -42.671875 Z M 82.28125 0 L 75.140625 -23.296875 L 33.484375 -23.296875 L 25.5 0 L 0.515625 0 L 40.796875 -112.875 L 68.171875 -112.875 L 107.953125 0 Z M 82.28125 0 "/></g></g></g><g fill="#ffffff" fill-opacity="1"><g transform="translate(135.993224, 249.374984)"><g><path d="M 34.6875 0 L 34.6875 -93.15625 L 0.6875 -93.15625 L 0.6875 -112.875 L 92.484375 -112.875 L 92.484375 -93.15625 L 58.3125 -93.15625 L 58.3125 0 Z M 34.6875 0 "/></g></g></g><g fill="#ffffff" fill-opacity="1"><g transform="translate(230.168869, 249.374984)"><g><path d="M 91.296875 0 L 91.296875 -77.34375 L 70.203125 0 L 46.75 0 L 25.84375 -77.015625 L 25.84375 0 L 3.90625 0 L 3.90625 -112.875 L 38.59375 -112.875 L 58.984375 -30.09375 L 79.390625 -112.875 L 113.390625 -112.875 L 113.390625 0 Z M 91.296875 0 "/></g></g></g></svg>