<svg xmlns="http://www.w3.org/2000/svg" xmlns:xlink="http://www.w3.org/1999/xlink" width="256" zoomAndPan="magnify" viewBox="0 0 192 191.999996" height="256" preserveAspectRatio="xMidYMid meet" version="1.0"><defs><g/></defs><rect x="-19.2" width="230.4" fill="#ffffff" y="-19.2" height="230.399995" fill-opacity="1"/><rect x="-19.2" width="230.4" fill="#ffffff" y="-19.2" height="230.399995" fill-opacity="1"/><rect x="-19.2" width="230.4" fill="#74cbe7" y="-19.2" height="230.399995" fill-opacity="1"/><g fill="#000000" fill-opacity="0.4"><g transform="translate(1.519495, 115.182442)"><g><path d="M 25.546875 -18.5625 L 25.546875 -11.953125 C 25.546875 -7.921875 24.5625 -4.828125 22.59375 -2.671875 C 20.625 -0.515625 17.71875 0.5625 13.875 0.5625 C 10.03125 0.5625 7.125 -0.515625 5.15625 -2.671875 C 3.1875 -4.828125 2.203125 -7.921875 2.203125 -11.953125 L 2.203125 -37.84375 C 2.203125 -41.875 3.1875 -44.96875 5.15625 -47.125 C 7.125 -49.289062 10.03125 -50.375 13.875 -50.375 C 17.71875 -50.375 20.625 -49.289062 22.59375 -47.125 C 24.5625 -44.96875 25.546875 -41.875 25.546875 -37.84375 L 25.546875 -33.015625 L 18.140625 -33.015625 L 18.140625 -38.34375 C 18.140625 -40.144531 17.769531 -41.410156 17.03125 -42.140625 C 16.300781 -42.878906 15.316406 -43.25 14.078125 -43.25 C 12.847656 -43.25 11.863281 -42.878906 11.125 -42.140625 C 10.394531 -41.410156 10.03125 -40.144531 10.03125 -38.34375 L 10.03125 -11.453125 C 10.03125 -9.648438 10.394531 -8.390625 11.125 -7.671875 C 11.863281 -6.960938 12.847656 -6.609375 14.078125 -6.609375 C 15.316406 -6.609375 16.300781 -6.960938 17.03125 -7.671875 C 17.769531 -8.390625 18.140625 -9.648438 18.140625 -11.453125 L 18.140625 -18.5625 Z M 25.546875 -18.5625 "/></g></g></g><g fill="#000000" fill-opacity="0.4"><g transform="translate(28.976149, 115.182442)"><g><path d="M 28.171875 0 L 20.28125 0 L 18.921875 -9.03125 L 9.3125 -9.03125 L 7.96875 0 L 0.78125 0 L 8.75 -49.796875 L 20.203125 -49.796875 Z M 10.3125 -15.796875 L 17.859375 -15.796875 L 14.078125 -40.984375 Z M 10.3125 -15.796875 "/></g></g></g><g fill="#000000" fill-opacity="0.4"><g transform="translate(57.926556, 115.182442)"><g><path d="M 14.375 -49.796875 C 18.3125 -49.796875 21.238281 -48.75 23.15625 -46.65625 C 25.070312 -44.570312 26.03125 -41.515625 26.03125 -37.484375 L 26.03125 -31.015625 C 26.03125 -26.984375 25.070312 -23.921875 23.15625 -21.828125 C 21.238281 -19.742188 18.3125 -18.703125 14.375 -18.703125 L 10.671875 -18.703125 L 10.671875 0 L 2.84375 0 L 2.84375 -49.796875 Z M 10.671875 -42.6875 L 10.671875 -25.828125 L 14.375 -25.828125 C 15.601562 -25.828125 16.550781 -26.15625 17.21875 -26.8125 C 17.882812 -27.476562 18.21875 -28.710938 18.21875 -30.515625 L 18.21875 -37.984375 C 18.21875 -39.785156 17.882812 -41.019531 17.21875 -41.6875 C 16.550781 -42.351562 15.601562 -42.6875 14.375 -42.6875 Z M 10.671875 -42.6875 "/></g></g></g><g fill="#000000" fill-opacity="0.4"><g transform="translate(85.098678, 115.182442)"><g><path d="M 0.5625 -49.796875 L 24.75 -49.796875 L 24.75 -42.6875 L 16.578125 -42.6875 L 16.578125 0 L 8.75 0 L 8.75 -42.6875 L 0.5625 -42.6875 Z M 0.5625 -49.796875 "/></g></g></g><g fill="#000000" fill-opacity="0.4"><g transform="translate(110.421394, 115.182442)"><g><path d="M 10.3125 -49.796875 L 10.3125 -11.375 C 10.3125 -9.570312 10.675781 -8.316406 11.40625 -7.609375 C 12.144531 -6.898438 13.132812 -6.546875 14.375 -6.546875 C 15.601562 -6.546875 16.582031 -6.898438 17.3125 -7.609375 C 18.050781 -8.316406 18.421875 -9.570312 18.421875 -11.375 L 18.421875 -49.796875 L 25.828125 -49.796875 L 25.828125 -11.875 C 25.828125 -7.84375 24.84375 -4.75 22.875 -2.59375 C 20.90625 -0.4375 18 0.640625 14.15625 0.640625 C 10.3125 0.640625 7.40625 -0.4375 5.4375 -2.59375 C 3.46875 -4.75 2.484375 -7.84375 2.484375 -11.875 L 2.484375 -49.796875 Z M 10.3125 -49.796875 "/></g></g></g><g fill="#000000" fill-opacity="0.4"><g transform="translate(138.731624, 115.182442)"><g><path d="M 19.203125 0 C 19.109375 -0.332031 19.015625 -0.640625 18.921875 -0.921875 C 18.828125 -1.210938 18.742188 -1.566406 18.671875 -1.984375 C 18.597656 -2.410156 18.550781 -2.957031 18.53125 -3.625 C 18.507812 -4.289062 18.5 -5.125 18.5 -6.125 L 18.5 -13.9375 C 18.5 -16.257812 18.09375 -17.894531 17.28125 -18.84375 C 16.476562 -19.800781 15.175781 -20.28125 13.375 -20.28125 L 10.671875 -20.28125 L 10.671875 0 L 2.84375 0 L 2.84375 -49.796875 L 14.65625 -49.796875 C 18.726562 -49.796875 21.675781 -48.847656 23.5 -46.953125 C 25.332031 -45.054688 26.25 -42.1875 26.25 -38.34375 L 26.25 -34.4375 C 26.25 -29.3125 24.539062 -25.941406 21.125 -24.328125 C 23.113281 -23.523438 24.476562 -22.207031 25.21875 -20.375 C 25.957031 -18.550781 26.328125 -16.335938 26.328125 -13.734375 L 26.328125 -6.046875 C 26.328125 -4.816406 26.375 -3.738281 26.46875 -2.8125 C 26.5625 -1.882812 26.796875 -0.945312 27.171875 0 Z M 10.671875 -42.6875 L 10.671875 -27.390625 L 13.734375 -27.390625 C 15.203125 -27.390625 16.347656 -27.769531 17.171875 -28.53125 C 18.003906 -29.289062 18.421875 -30.664062 18.421875 -32.65625 L 18.421875 -37.5625 C 18.421875 -39.363281 18.097656 -40.664062 17.453125 -41.46875 C 16.816406 -42.28125 15.8125 -42.6875 14.4375 -42.6875 Z M 10.671875 -42.6875 "/></g></g></g><g fill="#000000" fill-opacity="0.4"><g transform="translate(167.326376, 115.182442)"><g><path d="M 10.671875 -28.8125 L 21.40625 -28.8125 L 21.40625 -21.703125 L 10.671875 -21.703125 L 10.671875 -7.109375 L 24.1875 -7.109375 L 24.1875 0 L 2.84375 0 L 2.84375 -49.796875 L 24.1875 -49.796875 L 24.1875 -42.6875 L 10.671875 -42.6875 Z M 10.671875 -28.8125 "/></g></g></g><g fill="#ffffff" fill-opacity="1"><g transform="translate(0.0104226, 113.673373)"><g><path d="M 25.546875 -18.5625 L 25.546875 -11.953125 C 25.546875 -7.921875 24.5625 -4.828125 22.59375 -2.671875 C 20.625 -0.515625 17.71875 0.5625 13.875 0.5625 C 10.03125 0.5625 7.125 -0.515625 5.15625 -2.671875 C 3.1875 -4.828125 2.203125 -7.921875 2.203125 -11.953125 L 2.203125 -37.84375 C 2.203125 -41.875 3.1875 -44.96875 5.15625 -47.125 C 7.125 -49.289062 10.03125 -50.375 13.875 -50.375 C 17.71875 -50.375 20.625 -49.289062 22.59375 -47.125 C 24.5625 -44.96875 25.546875 -41.875 25.546875 -37.84375 L 25.546875 -33.015625 L 18.140625 -33.015625 L 18.140625 -38.34375 C 18.140625 -40.144531 17.769531 -41.410156 17.03125 -42.140625 C 16.300781 -42.878906 15.316406 -43.25 14.078125 -43.25 C 12.847656 -43.25 11.863281 -42.878906 11.125 -42.140625 C 10.394531 -41.410156 10.03125 -40.144531 10.03125 -38.34375 L 10.03125 -11.453125 C 10.03125 -9.648438 10.394531 -8.390625 11.125 -7.671875 C 11.863281 -6.960938 12.847656 -6.609375 14.078125 -6.609375 C 15.316406 -6.609375 16.300781 -6.960938 17.03125 -7.671875 C 17.769531 -8.390625 18.140625 -9.648438 18.140625 -11.453125 L 18.140625 -18.5625 Z M 25.546875 -18.5625 "/></g></g></g><g fill="#ffffff" fill-opacity="1"><g transform="translate(27.467077, 113.673373)"><g><path d="M 28.171875 0 L 20.28125 0 L 18.921875 -9.03125 L 9.3125 -9.03125 L 7.96875 0 L 0.78125 0 L 8.75 -49.796875 L 20.203125 -49.796875 Z M 10.3125 -15.796875 L 17.859375 -15.796875 L 14.078125 -40.984375 Z M 10.3125 -15.796875 "/></g></g></g><g fill="#ffffff" fill-opacity="1"><g transform="translate(56.417484, 113.673373)"><g><path d="M 14.375 -49.796875 C 18.3125 -49.796875 21.238281 -48.75 23.15625 -46.65625 C 25.070312 -44.570312 26.03125 -41.515625 26.03125 -37.484375 L 26.03125 -31.015625 C 26.03125 -26.984375 25.070312 -23.921875 23.15625 -21.828125 C 21.238281 -19.742188 18.3125 -18.703125 14.375 -18.703125 L 10.671875 -18.703125 L 10.671875 0 L 2.84375 0 L 2.84375 -49.796875 Z M 10.671875 -42.6875 L 10.671875 -25.828125 L 14.375 -25.828125 C 15.601562 -25.828125 16.550781 -26.15625 17.21875 -26.8125 C 17.882812 -27.476562 18.21875 -28.710938 18.21875 -30.515625 L 18.21875 -37.984375 C 18.21875 -39.785156 17.882812 -41.019531 17.21875 -41.6875 C 16.550781 -42.351562 15.601562 -42.6875 14.375 -42.6875 Z M 10.671875 -42.6875 "/></g></g></g><g fill="#ffffff" fill-opacity="1"><g transform="translate(83.589606, 113.673373)"><g><path d="M 0.5625 -49.796875 L 24.75 -49.796875 L 24.75 -42.6875 L 16.578125 -42.6875 L 16.578125 0 L 8.75 0 L 8.75 -42.6875 L 0.5625 -42.6875 Z M 0.5625 -49.796875 "/></g></g></g><g fill="#ffffff" fill-opacity="1"><g transform="translate(108.912322, 113.673373)"><g><path d="M 10.3125 -49.796875 L 10.3125 -11.375 C 10.3125 -9.570312 10.675781 -8.316406 11.40625 -7.609375 C 12.144531 -6.898438 13.132812 -6.546875 14.375 -6.546875 C 15.601562 -6.546875 16.582031 -6.898438 17.3125 -7.609375 C 18.050781 -8.316406 18.421875 -9.570312 18.421875 -11.375 L 18.421875 -49.796875 L 25.828125 -49.796875 L 25.828125 -11.875 C 25.828125 -7.84375 24.84375 -4.75 22.875 -2.59375 C 20.90625 -0.4375 18 0.640625 14.15625 0.640625 C 10.3125 0.640625 7.40625 -0.4375 5.4375 -2.59375 C 3.46875 -4.75 2.484375 -7.84375 2.484375 -11.875 L 2.484375 -49.796875 Z M 10.3125 -49.796875 "/></g></g></g><g fill="#ffffff" fill-opacity="1"><g transform="translate(137.222552, 113.673373)"><g><path d="M 19.203125 0 C 19.109375 -0.332031 19.015625 -0.640625 18.921875 -0.921875 C 18.828125 -1.210938 18.742188 -1.566406 18.671875 -1.984375 C 18.597656 -2.410156 18.550781 -2.957031 18.53125 -3.625 C 18.507812 -4.289062 18.5 -5.125 18.5 -6.125 L 18.5 -13.9375 C 18.5 -16.257812 18.09375 -17.894531 17.28125 -18.84375 C 16.476562 -19.800781 15.175781 -20.28125 13.375 -20.28125 L 10.671875 -20.28125 L 10.671875 0 L 2.84375 0 L 2.84375 -49.796875 L 14.65625 -49.796875 C 18.726562 -49.796875 21.675781 -48.847656 23.5 -46.953125 C 25.332031 -45.054688 26.25 -42.1875 26.25 -38.34375 L 26.25 -34.4375 C 26.25 -29.3125 24.539062 -25.941406 21.125 -24.328125 C 23.113281 -23.523438 24.476562 -22.207031 25.21875 -20.375 C 25.957031 -18.550781 26.328125 -16.335938 26.328125 -13.734375 L 26.328125 -6.046875 C 26.328125 -4.816406 26.375 -3.738281 26.46875 -2.8125 C 26.5625 -1.882812 26.796875 -0.945312 27.171875 0 Z M 10.671875 -42.6875 L 10.671875 -27.390625 L 13.734375 -27.390625 C 15.203125 -27.390625 16.347656 -27.769531 17.171875 -28.53125 C 18.003906 -29.289062 18.421875 -30.664062 18.421875 -32.65625 L 18.421875 -37.5625 C 18.421875 -39.363281 18.097656 -40.664062 17.453125 -41.46875 C 16.816406 -42.28125 15.8125 -42.6875 14.4375 -42.6875 Z M 10.671875 -42.6875 "/></g></g></g><g fill="#ffffff" fill-opacity="1"><g transform="translate(165.817304, 113.673373)"><g><path d="M 10.671875 -28.8125 L 21.40625 -28.8125 L 21.40625 -21.703125 L 10.671875 -21.703125 L 10.671875 -7.109375 L 24.1875 -7.109375 L 24.1875 0 L 2.84375 0 L 2.84375 -49.796875 L 24.1875 -49.796875 L 24.1875 -42.6875 L 10.671875 -42.6875 Z M 10.671875 -28.8125 "/></g></g></g></svg>